<mxfile host="app.diagrams.net" agent="Mozilla/5.0 (Windows NT 10.0; Win64; x64) AppleWebKit/537.36 (KHTML, like Gecko) Chrome/134.0.0.0 Safari/537.36" version="26.2.9">
  <diagram name="第 1 页" id="5xqN2rgTjP0GNSbNxUZ-">
    <mxGraphModel dx="1428" dy="751" grid="1" gridSize="10" guides="1" tooltips="1" connect="1" arrows="1" fold="1" page="1" pageScale="1" pageWidth="2339" pageHeight="3300" math="0" shadow="0">
      <root>
        <mxCell id="0" />
        <mxCell id="1" parent="0" />
        <mxCell id="nw4yh5n6GvbLldcTkkvz-25" value="系统架构图" style="swimlane;childLayout=stackLayout;resizeParent=1;resizeParentMax=0;startSize=20;html=1;" parent="1" vertex="1">
          <mxGeometry x="30" y="40" width="870" height="660" as="geometry" />
        </mxCell>
        <mxCell id="nw4yh5n6GvbLldcTkkvz-26" value="互联网" style="swimlane;startSize=20;html=1;" parent="nw4yh5n6GvbLldcTkkvz-25" vertex="1">
          <mxGeometry y="20" width="340" height="640" as="geometry" />
        </mxCell>
        <mxCell id="nw4yh5n6GvbLldcTkkvz-1" value="" style="sketch=0;pointerEvents=1;shadow=0;dashed=0;html=1;strokeColor=none;fillColor=#434445;aspect=fixed;labelPosition=center;verticalLabelPosition=bottom;verticalAlign=top;align=center;outlineConnect=0;shape=mxgraph.vvd.web_browser;" parent="nw4yh5n6GvbLldcTkkvz-26" vertex="1">
          <mxGeometry x="61.83" y="230" width="56.34" height="40" as="geometry" />
        </mxCell>
        <mxCell id="nw4yh5n6GvbLldcTkkvz-14" value="&lt;font style=&quot;font-size: 18px;&quot;&gt;浏览器&lt;/font&gt;&lt;div&gt;&lt;font size=&quot;3&quot;&gt;&amp;nbsp;http://dashboard.cschain.tech&lt;/font&gt;&lt;/div&gt;" style="text;html=1;align=center;verticalAlign=middle;resizable=0;points=[];autosize=1;strokeColor=none;fillColor=none;" parent="nw4yh5n6GvbLldcTkkvz-26" vertex="1">
          <mxGeometry x="-29.999999999999986" y="275" width="240" height="50" as="geometry" />
        </mxCell>
        <mxCell id="nw4yh5n6GvbLldcTkkvz-5" value="" style="sketch=0;html=1;aspect=fixed;strokeColor=none;shadow=0;fillColor=#3B8DF1;verticalAlign=top;labelPosition=center;verticalLabelPosition=bottom;shape=mxgraph.gcp2.vpn" parent="nw4yh5n6GvbLldcTkkvz-26" vertex="1">
          <mxGeometry x="220" y="220" width="100" height="50" as="geometry" />
        </mxCell>
        <mxCell id="nw4yh5n6GvbLldcTkkvz-13" value="&lt;font style=&quot;font-size: 18px;&quot;&gt;深圳云&lt;/font&gt;" style="text;html=1;align=center;verticalAlign=middle;resizable=0;points=[];autosize=1;strokeColor=none;fillColor=none;" parent="nw4yh5n6GvbLldcTkkvz-26" vertex="1">
          <mxGeometry x="230" y="275" width="80" height="40" as="geometry" />
        </mxCell>
        <mxCell id="nw4yh5n6GvbLldcTkkvz-31" value="" style="endArrow=classic;html=1;rounded=0;entryX=0.02;entryY=0.62;entryDx=0;entryDy=0;entryPerimeter=0;" parent="nw4yh5n6GvbLldcTkkvz-26" target="nw4yh5n6GvbLldcTkkvz-5" edge="1">
          <mxGeometry width="50" height="50" relative="1" as="geometry">
            <mxPoint x="118.16999999999996" y="250" as="sourcePoint" />
            <mxPoint x="168.16999999999996" y="200" as="targetPoint" />
          </mxGeometry>
        </mxCell>
        <mxCell id="nw4yh5n6GvbLldcTkkvz-27" value="业务组服务" style="swimlane;startSize=20;html=1;" parent="nw4yh5n6GvbLldcTkkvz-25" vertex="1">
          <mxGeometry x="340" y="20" width="350" height="640" as="geometry" />
        </mxCell>
        <mxCell id="nw4yh5n6GvbLldcTkkvz-3" value="" style="aspect=fixed;sketch=0;html=1;dashed=0;whitespace=wrap;verticalLabelPosition=bottom;verticalAlign=top;fillColor=#2875E2;strokeColor=#ffffff;points=[[0.005,0.63,0],[0.1,0.2,0],[0.9,0.2,0],[0.5,0,0],[0.995,0.63,0],[0.72,0.99,0],[0.5,1,0],[0.28,0.99,0]];shape=mxgraph.kubernetes.icon2;kubernetesLabel=1;prIcon=ing" parent="nw4yh5n6GvbLldcTkkvz-27" vertex="1">
          <mxGeometry x="30" y="202" width="75" height="72" as="geometry" />
        </mxCell>
        <mxCell id="nw4yh5n6GvbLldcTkkvz-15" value="&lt;font style=&quot;font-size: 18px;&quot;&gt;k8s ingress&lt;/font&gt;" style="text;html=1;align=center;verticalAlign=middle;resizable=0;points=[];autosize=1;strokeColor=none;fillColor=none;" parent="nw4yh5n6GvbLldcTkkvz-27" vertex="1">
          <mxGeometry x="24.999999999999957" y="269" width="110" height="40" as="geometry" />
        </mxCell>
        <mxCell id="nw4yh5n6GvbLldcTkkvz-16" value="&lt;font style=&quot;font-size: 18px;&quot;&gt;dashboard&lt;/font&gt;" style="text;html=1;align=center;verticalAlign=middle;resizable=0;points=[];autosize=1;strokeColor=none;fillColor=none;" parent="nw4yh5n6GvbLldcTkkvz-27" vertex="1">
          <mxGeometry x="143.16999999999996" y="269" width="110" height="40" as="geometry" />
        </mxCell>
        <mxCell id="nw4yh5n6GvbLldcTkkvz-18" value="" style="aspect=fixed;sketch=0;html=1;dashed=0;whitespace=wrap;verticalLabelPosition=bottom;verticalAlign=top;fillColor=#2875E2;strokeColor=#ffffff;points=[[0.005,0.63,0],[0.1,0.2,0],[0.9,0.2,0],[0.5,0,0],[0.995,0.63,0],[0.72,0.99,0],[0.5,1,0],[0.28,0.99,0]];shape=mxgraph.kubernetes.icon2;kubernetesLabel=1;prIcon=pod" parent="nw4yh5n6GvbLldcTkkvz-27" vertex="1">
          <mxGeometry x="150" y="203.76" width="73.17" height="70.24" as="geometry" />
        </mxCell>
        <mxCell id="nw4yh5n6GvbLldcTkkvz-20" value="" style="aspect=fixed;sketch=0;html=1;dashed=0;whitespace=wrap;verticalLabelPosition=bottom;verticalAlign=top;fillColor=#2875E2;strokeColor=#ffffff;points=[[0.005,0.63,0],[0.1,0.2,0],[0.9,0.2,0],[0.5,0,0],[0.995,0.63,0],[0.72,0.99,0],[0.5,1,0],[0.28,0.99,0]];shape=mxgraph.kubernetes.icon2;kubernetesLabel=1;prIcon=pod" parent="nw4yh5n6GvbLldcTkkvz-27" vertex="1">
          <mxGeometry x="250" y="203.76" width="73.17" height="70.24" as="geometry" />
        </mxCell>
        <mxCell id="nw4yh5n6GvbLldcTkkvz-21" value="&lt;font style=&quot;font-size: 18px;&quot;&gt;system&lt;/font&gt;" style="text;html=1;align=center;verticalAlign=middle;resizable=0;points=[];autosize=1;strokeColor=none;fillColor=none;" parent="nw4yh5n6GvbLldcTkkvz-27" vertex="1">
          <mxGeometry x="258.16999999999996" y="269" width="80" height="40" as="geometry" />
        </mxCell>
        <mxCell id="nw4yh5n6GvbLldcTkkvz-33" value="" style="endArrow=classic;html=1;rounded=0;exitX=0.995;exitY=0.63;exitDx=0;exitDy=0;exitPerimeter=0;entryX=0.005;entryY=0.63;entryDx=0;entryDy=0;entryPerimeter=0;" parent="nw4yh5n6GvbLldcTkkvz-27" source="nw4yh5n6GvbLldcTkkvz-3" target="nw4yh5n6GvbLldcTkkvz-18" edge="1">
          <mxGeometry width="50" height="50" relative="1" as="geometry">
            <mxPoint x="290" y="350" as="sourcePoint" />
            <mxPoint x="340" y="300" as="targetPoint" />
          </mxGeometry>
        </mxCell>
        <mxCell id="nw4yh5n6GvbLldcTkkvz-34" value="" style="endArrow=classic;html=1;rounded=0;exitX=0.995;exitY=0.63;exitDx=0;exitDy=0;exitPerimeter=0;entryX=0.005;entryY=0.63;entryDx=0;entryDy=0;entryPerimeter=0;" parent="nw4yh5n6GvbLldcTkkvz-27" source="nw4yh5n6GvbLldcTkkvz-18" target="nw4yh5n6GvbLldcTkkvz-20" edge="1">
          <mxGeometry width="50" height="50" relative="1" as="geometry">
            <mxPoint x="115" y="266" as="sourcePoint" />
            <mxPoint x="183" y="266" as="targetPoint" />
          </mxGeometry>
        </mxCell>
        <mxCell id="nw4yh5n6GvbLldcTkkvz-28" value="技术组服务" style="swimlane;startSize=20;html=1;" parent="nw4yh5n6GvbLldcTkkvz-25" vertex="1">
          <mxGeometry x="690" y="20" width="180.00000000000003" height="640" as="geometry" />
        </mxCell>
        <mxCell id="nw4yh5n6GvbLldcTkkvz-17" value="" style="aspect=fixed;sketch=0;html=1;dashed=0;whitespace=wrap;verticalLabelPosition=bottom;verticalAlign=top;fillColor=#2875E2;strokeColor=#ffffff;points=[[0.005,0.63,0],[0.1,0.2,0],[0.9,0.2,0],[0.5,0,0],[0.995,0.63,0],[0.72,0.99,0],[0.5,1,0],[0.28,0.99,0]];shape=mxgraph.kubernetes.icon2;kubernetesLabel=1;prIcon=pod" parent="nw4yh5n6GvbLldcTkkvz-28" vertex="1">
          <mxGeometry x="40" y="206.8" width="76.25" height="73.2" as="geometry" />
        </mxCell>
        <mxCell id="nw4yh5n6GvbLldcTkkvz-19" value="&lt;div style=&quot;text-align: start;&quot;&gt;&lt;span style=&quot;background-color: transparent; color: light-dark(rgb(0, 0, 0), rgb(255, 255, 255));&quot;&gt;&lt;font style=&quot;font-size: 18px;&quot;&gt;services-data-export&lt;/font&gt;&lt;/span&gt;&lt;/div&gt;" style="text;html=1;align=center;verticalAlign=middle;resizable=0;points=[];autosize=1;strokeColor=none;fillColor=none;" parent="nw4yh5n6GvbLldcTkkvz-28" vertex="1">
          <mxGeometry x="-9.999999999999964" y="280" width="190" height="40" as="geometry" />
        </mxCell>
        <mxCell id="nw4yh5n6GvbLldcTkkvz-42" value="" style="endArrow=classic;html=1;rounded=0;entryX=0.05;entryY=0.66;entryDx=0;entryDy=0;entryPerimeter=0;" parent="nw4yh5n6GvbLldcTkkvz-28" target="nw4yh5n6GvbLldcTkkvz-38" edge="1">
          <mxGeometry width="50" height="50" relative="1" as="geometry">
            <mxPoint x="97.74000000000001" y="275" as="sourcePoint" />
            <mxPoint x="147.74" y="225" as="targetPoint" />
          </mxGeometry>
        </mxCell>
        <mxCell id="nw4yh5n6GvbLldcTkkvz-32" value="" style="endArrow=classic;html=1;rounded=0;entryX=0.005;entryY=0.63;entryDx=0;entryDy=0;entryPerimeter=0;exitX=0.95;exitY=0.7;exitDx=0;exitDy=0;exitPerimeter=0;" parent="nw4yh5n6GvbLldcTkkvz-25" source="nw4yh5n6GvbLldcTkkvz-5" target="nw4yh5n6GvbLldcTkkvz-3" edge="1">
          <mxGeometry width="50" height="50" relative="1" as="geometry">
            <mxPoint x="320" y="269.5" as="sourcePoint" />
            <mxPoint x="423.83000000000004" y="270.5" as="targetPoint" />
          </mxGeometry>
        </mxCell>
        <mxCell id="nw4yh5n6GvbLldcTkkvz-47" value="" style="endArrow=classic;startArrow=classic;html=1;rounded=0;" parent="nw4yh5n6GvbLldcTkkvz-25" source="nw4yh5n6GvbLldcTkkvz-20" edge="1">
          <mxGeometry width="50" height="50" relative="1" as="geometry">
            <mxPoint x="650" y="320" as="sourcePoint" />
            <mxPoint x="760" y="270" as="targetPoint" />
          </mxGeometry>
        </mxCell>
        <mxCell id="nw4yh5n6GvbLldcTkkvz-35" value="数据层" style="swimlane;startSize=20;html=1;" parent="1" vertex="1">
          <mxGeometry x="890" y="60" width="200" height="640" as="geometry" />
        </mxCell>
        <mxCell id="nw4yh5n6GvbLldcTkkvz-22" value="" style="html=1;verticalLabelPosition=bottom;align=center;labelBackgroundColor=#ffffff;verticalAlign=top;strokeWidth=2;strokeColor=#0080F0;shadow=0;dashed=0;shape=mxgraph.ios7.icons.data;" parent="nw4yh5n6GvbLldcTkkvz-35" vertex="1">
          <mxGeometry x="80" y="180" width="40" height="49.1" as="geometry" />
        </mxCell>
        <mxCell id="nw4yh5n6GvbLldcTkkvz-23" value="&lt;font style=&quot;font-size: 18px;&quot;&gt;kingbase&lt;/font&gt;" style="text;html=1;align=center;verticalAlign=middle;resizable=0;points=[];autosize=1;strokeColor=none;fillColor=none;" parent="nw4yh5n6GvbLldcTkkvz-35" vertex="1">
          <mxGeometry x="50" y="224.10000000000002" width="100" height="40" as="geometry" />
        </mxCell>
        <mxCell id="nw4yh5n6GvbLldcTkkvz-38" value="" style="verticalLabelPosition=bottom;html=1;verticalAlign=top;align=center;strokeColor=none;fillColor=#00BEF2;shape=mxgraph.azure.sql_reporting;" parent="nw4yh5n6GvbLldcTkkvz-35" vertex="1">
          <mxGeometry x="80" y="418" width="40" height="50" as="geometry" />
        </mxCell>
        <mxCell id="nw4yh5n6GvbLldcTkkvz-39" value="&lt;font style=&quot;font-size: 18px;&quot;&gt;Minio&lt;/font&gt;" style="text;html=1;align=center;verticalAlign=middle;resizable=0;points=[];autosize=1;strokeColor=none;fillColor=none;" parent="nw4yh5n6GvbLldcTkkvz-35" vertex="1">
          <mxGeometry x="65" y="463" width="70" height="40" as="geometry" />
        </mxCell>
        <mxCell id="nw4yh5n6GvbLldcTkkvz-43" value="" style="html=1;verticalLabelPosition=bottom;align=center;labelBackgroundColor=#ffffff;verticalAlign=top;strokeWidth=2;strokeColor=#0080F0;shadow=0;dashed=0;shape=mxgraph.ios7.icons.data;" parent="nw4yh5n6GvbLldcTkkvz-35" vertex="1">
          <mxGeometry x="80" y="80" width="40" height="49.1" as="geometry" />
        </mxCell>
        <mxCell id="nw4yh5n6GvbLldcTkkvz-44" value="&lt;font style=&quot;font-size: 18px;&quot;&gt;kingbase&lt;/font&gt;" style="text;html=1;align=center;verticalAlign=middle;resizable=0;points=[];autosize=1;strokeColor=none;fillColor=none;" parent="nw4yh5n6GvbLldcTkkvz-35" vertex="1">
          <mxGeometry x="50" y="124.10000000000002" width="100" height="40" as="geometry" />
        </mxCell>
        <mxCell id="1KJwPMJ1KZagRm76Q6gw-1" value="" style="outlineConnect=0;dashed=0;verticalLabelPosition=bottom;verticalAlign=top;align=center;html=1;shape=mxgraph.aws3.memcached;fillColor=#2E73B8;gradientColor=none;" vertex="1" parent="nw4yh5n6GvbLldcTkkvz-35">
          <mxGeometry x="70" y="290" width="60" height="63" as="geometry" />
        </mxCell>
        <mxCell id="1KJwPMJ1KZagRm76Q6gw-2" value="&lt;font style=&quot;font-size: 18px;&quot;&gt;MongDB&lt;/font&gt;" style="text;html=1;align=center;verticalAlign=middle;resizable=0;points=[];autosize=1;strokeColor=none;fillColor=none;" vertex="1" parent="nw4yh5n6GvbLldcTkkvz-35">
          <mxGeometry x="55" y="348" width="90" height="40" as="geometry" />
        </mxCell>
        <mxCell id="nw4yh5n6GvbLldcTkkvz-41" value="" style="endArrow=classic;html=1;rounded=0;entryX=0.025;entryY=0.692;entryDx=0;entryDy=0;entryPerimeter=0;" parent="1" source="nw4yh5n6GvbLldcTkkvz-17" target="nw4yh5n6GvbLldcTkkvz-22" edge="1">
          <mxGeometry width="50" height="50" relative="1" as="geometry">
            <mxPoint x="850" y="290" as="sourcePoint" />
            <mxPoint x="900" y="240" as="targetPoint" />
          </mxGeometry>
        </mxCell>
        <mxCell id="nw4yh5n6GvbLldcTkkvz-45" value="" style="endArrow=classic;html=1;rounded=0;entryX=-0.05;entryY=0.72;entryDx=0;entryDy=0;entryPerimeter=0;exitX=0.5;exitY=1;exitDx=0;exitDy=0;exitPerimeter=0;" parent="1" source="nw4yh5n6GvbLldcTkkvz-20" target="nw4yh5n6GvbLldcTkkvz-38" edge="1">
          <mxGeometry width="50" height="50" relative="1" as="geometry">
            <mxPoint x="680" y="410" as="sourcePoint" />
            <mxPoint x="730" y="360" as="targetPoint" />
            <Array as="points">
              <mxPoint x="688" y="516" />
            </Array>
          </mxGeometry>
        </mxCell>
        <mxCell id="nw4yh5n6GvbLldcTkkvz-46" value="" style="endArrow=classic;html=1;rounded=0;exitX=0.517;exitY=0.167;exitDx=0;exitDy=0;exitPerimeter=0;entryX=-0.075;entryY=0.489;entryDx=0;entryDy=0;entryPerimeter=0;" parent="1" source="nw4yh5n6GvbLldcTkkvz-20" target="nw4yh5n6GvbLldcTkkvz-43" edge="1">
          <mxGeometry width="50" height="50" relative="1" as="geometry">
            <mxPoint x="680" y="410" as="sourcePoint" />
            <mxPoint x="730" y="360" as="targetPoint" />
            <Array as="points">
              <mxPoint x="690" y="164" />
            </Array>
          </mxGeometry>
        </mxCell>
        <mxCell id="1KJwPMJ1KZagRm76Q6gw-3" value="" style="endArrow=classic;html=1;rounded=0;exitX=0.995;exitY=0.63;exitDx=0;exitDy=0;exitPerimeter=0;entryX=0;entryY=0.5;entryDx=0;entryDy=0;entryPerimeter=0;" edge="1" parent="1" source="nw4yh5n6GvbLldcTkkvz-17" target="1KJwPMJ1KZagRm76Q6gw-1">
          <mxGeometry width="50" height="50" relative="1" as="geometry">
            <mxPoint x="700" y="400" as="sourcePoint" />
            <mxPoint x="750" y="350" as="targetPoint" />
          </mxGeometry>
        </mxCell>
      </root>
    </mxGraphModel>
  </diagram>
</mxfile>
